<svg xmlns="http://www.w3.org/2000/svg" viewBox="0 0 512 512">
  <rect x="24" y="24" width="464" height="464" rx="128" fill="#fcf8f4"/>
  <circle cx="256" cy="256" r="158" fill="none" stroke="#2f4f3b" stroke-width="24"/>
  <path d="M256 116c-14 34-41 56-68 76 19 8 39 12 68 12 29 0 49-4 68-12-27-20-54-42-68-76Z" fill="#bf6b87"/>
  <path d="M201 221c-20 17-34 39-39 68 23-10 44-15 67-15 1-18 2-36 7-53-12-1-23-1-35 0Z" fill="#7b9e5f"/>
  <path d="M311 221c20 17 34 39 39 68-23-10-44-15-67-15-1-18-2-36-7-53 12-1 23-1 35 0Z" fill="#7b9e5f"/>
  <path d="M228 258c13 41 20 63 28 83 8-20 15-42 28-83-19-8-31-8-56 0Z" fill="#f6f1ea"/>
  <circle cx="256" cy="256" r="24" fill="#3b4f3f"/>
  <path d="M228 306c13 16 24 28 35 41-19 9-43 10-63 1 9-15 17-27 28-42Z" fill="#e3b6c5"/>
</svg>
